<svg xmlns="http://www.w3.org/2000/svg" xmlns:xlink="http://www.w3.org/1999/xlink" id="Capa_1" x="0px" y="0px" width="295px" height="80.779px" viewBox="0 0 295 80.779" xml:space="preserve">
<rect fill="#022A3A" width="295" height="80.779"></rect>
<path fill="#FFFFFF" d="M37.37,42.324c-0.296,0.176-0.604,0.34-0.927,0.485c-1.087,0.489-2.28,0.733-3.579,0.733  c-1.3,0-2.499-0.25-3.597-0.752c-1.1-0.501-2.042-1.172-2.829-2.014c-0.787-0.84-1.399-1.83-1.836-2.972  c-0.438-1.142-0.655-2.353-0.655-3.632v-0.075c0-1.28,0.217-2.483,0.655-3.613c0.438-1.128,1.043-2.113,1.817-2.954  c0.774-0.839,1.705-1.504,2.792-1.993c1.086-0.49,2.28-0.735,3.579-0.735s2.498,0.251,3.597,0.753  c1.099,0.503,2.042,1.173,2.829,2.013c0.228,0.244,0.439,0.501,0.639,0.771l3.613-3.008c-0.226-0.271-0.458-0.537-0.706-0.791  c-1.205-1.229-2.647-2.201-4.328-2.917c-1.681-0.715-3.537-1.072-5.569-1.072c-2.032,0-3.89,0.364-5.569,1.092  c-1.681,0.728-3.136,1.712-4.365,2.954s-2.182,2.684-2.859,4.327c-0.678,1.643-1.016,3.393-1.016,5.249v0.076  c0,1.856,0.338,3.606,1.016,5.249c0.677,1.643,1.618,3.081,2.822,4.308c1.204,1.23,2.646,2.202,4.327,2.917  c1.681,0.715,3.538,1.072,5.57,1.072c2.032,0,3.888-0.365,5.568-1.091c0.57-0.247,1.111-0.524,1.627-0.831L37.37,42.324z"></path>
<rect x="148.466" y="20.545" fill="#40B4E5" width="23.821" height="4.438"></rect>
<path fill="#40B4E5" d="M157.775,34.709v12.988h4.894V30.776C161.197,32.3,159.513,33.603,157.775,34.709z"></path>
<path fill="#FFFFFF" d="M161.213,27.186L161.213,27.186l-0.646,0v0h-2.524c-0.021,0.024-0.042,0.048-0.066,0.073  c-2.619,2.728-6.367,4.693-6.367,4.693l-0.046-0.092c-0.013,0.007-0.026,0.015-0.039,0.022c-0.353-0.941-0.854-1.758-1.506-2.444  c-1.421-1.494-3.601-2.241-6.542-2.241c-1.62,0-3.003,0.154-4.149,0.459c-0.724,0.194-1.438,0.433-2.143,0.708v4.198l0.012,0.035  c0.897-0.382,1.782-0.689,2.654-0.919c0.873-0.23,1.87-0.345,2.991-0.345c1.57,0,2.771,0.371,3.607,1.111  c0.377,0.334,0.665,0.739,0.869,1.21c-0.002,0-0.003,0.001-0.005,0.002c0,0-0.586,0.256-1.739,0.614  c-0.001,0.001-0.004,0.003-0.005,0.004c-2.124,0.658-4.873,1.306-4.873,1.306l-0.003,0.014c-0.434,0.115-0.86,0.241-1.273,0.383  c-1,0.345-1.873,0.795-2.619,1.352c-0.746,0.557-1.333,1.233-1.759,2.028c-0.426,0.796-0.639,1.725-0.639,2.783  c0,0.797,0.166,1.539,0.5,2.228c0.333,0.69,0.799,1.279,1.399,1.77c0.6,0.492,1.333,0.883,2.199,1.174s1.819,0.438,2.859,0.438  c0.612,0,1.272-0.066,1.978-0.198c0.707-0.134,1.386-0.332,2.039-0.598c0.653-0.265,1.233-0.589,1.74-0.974  c0.205-0.156,0.387-0.322,0.548-0.498v2.25h4.486v-9.463c-0.005,0.002-0.009,0.004-0.013,0.005c-3.526,1.175-4.243,2.172-4.386,2.57  c-0.002,0.015-0.002,0.031-0.004,0.046c-0.305,0.689-0.735,1.287-1.292,1.789c-0.13,0.118-0.27,0.23-0.414,0.337  c-0.396,0.27-0.834,0.498-1.322,0.675c-0.733,0.269-1.54,0.401-2.418,0.401c-0.636,0-1.167-0.072-1.594-0.219  c-0.427-0.146-0.775-0.34-1.045-0.583c-0.269-0.243-0.464-0.498-0.586-0.766c-0.123-0.267-0.184-0.534-0.184-0.802  c0-0.695,0.307-1.283,0.912-1.768l0.001,0c0,0,0.002-0.002,0.006-0.005c0.039-0.032,0.075-0.065,0.118-0.096  c0.003-0.002,0.006-0.004,0.01-0.007c0.024-0.017,0.05-0.032,0.075-0.049c0.347-0.217,1.24-0.652,3.419-1.258  c0.314-0.077,0.724-0.184,1.206-0.318c0.054-0.014,0.105-0.027,0.16-0.041c0.62-0.154,1.063-0.292,1.368-0.417  c4.455-1.415,12.128-4.57,16.477-10.46c0.024-0.041,0.048-0.079,0.072-0.119H161.213z"></path>
<path fill="#FFFFFF" d="M132.775,31.183v-3.98h-5.435v-4.392v-1.157v-1.109h-4.669v1.109v1.157v2.723h0.003v9.022h-0.003v7.267  c0,1.123,0.141,2.061,0.425,2.813c0.282,0.754,0.688,1.359,1.215,1.819c0.527,0.459,1.151,0.79,1.872,0.995  c0.72,0.203,1.502,0.306,2.345,0.306c0.867,0,1.632-0.089,2.296-0.268c0.663-0.178,1.288-0.434,1.875-0.766v-3.789  c-0.918,0.459-1.875,0.688-2.871,0.688c-0.791,0-1.403-0.197-1.837-0.593c-0.434-0.396-0.651-1.039-0.651-1.933v-9.914H132.775z"></path>
<g>
	<path fill="#FFFFFF" d="M46.866,53.644v0.8h-2.073v5.791h-0.923v-5.791h-2.073v-0.8H46.866z"></path>
	<path fill="#FFFFFF" d="M52.211,60.234v-6.591h4.022v0.79h-3.1v1.959h2.758v0.771h-2.758v2.282h3.338v0.789H52.211z"></path>
	<path fill="#FFFFFF" d="M64.583,60.377c-0.463,0-0.884-0.076-1.264-0.229c-0.381-0.151-0.708-0.373-0.98-0.665   c-0.272-0.291-0.483-0.651-0.632-1.08c-0.148-0.427-0.224-0.917-0.224-1.469s0.084-1.042,0.251-1.469   c0.169-0.43,0.396-0.789,0.681-1.08c0.285-0.292,0.618-0.513,0.999-0.666c0.38-0.152,0.786-0.228,1.217-0.228   c0.272,0,0.518,0.019,0.737,0.057c0.218,0.038,0.408,0.083,0.57,0.134c0.162,0.05,0.293,0.102,0.395,0.151   c0.102,0.052,0.171,0.089,0.209,0.113l-0.267,0.762c-0.057-0.038-0.14-0.079-0.247-0.124c-0.107-0.044-0.23-0.088-0.366-0.132   c-0.136-0.046-0.285-0.082-0.447-0.11c-0.161-0.028-0.324-0.043-0.489-0.043c-0.349,0-0.663,0.061-0.941,0.181   c-0.279,0.12-0.518,0.295-0.714,0.523c-0.197,0.228-0.347,0.506-0.452,0.833c-0.104,0.325-0.156,0.691-0.156,1.098   c0,0.394,0.046,0.752,0.138,1.074c0.092,0.324,0.23,0.602,0.414,0.832c0.184,0.232,0.414,0.412,0.689,0.538   c0.276,0.127,0.598,0.189,0.966,0.189c0.424,0,0.776-0.044,1.055-0.133c0.279-0.089,0.488-0.167,0.627-0.237l0.238,0.761   c-0.044,0.03-0.123,0.071-0.238,0.118c-0.114,0.048-0.256,0.094-0.427,0.139c-0.172,0.043-0.371,0.082-0.6,0.113   C65.097,60.36,64.85,60.377,64.583,60.377z"></path>
	<path fill="#FFFFFF" d="M76.167,53.644h0.923v6.591h-0.923V57.19h-3.224v3.044h-0.922v-6.591h0.922v2.749h3.224V53.644z"></path>
	<path fill="#FFFFFF" d="M87.617,60.234c-0.14-0.234-0.299-0.498-0.48-0.789c-0.18-0.293-0.375-0.595-0.585-0.908   c-0.208-0.314-0.426-0.633-0.651-0.956s-0.449-0.636-0.67-0.937c-0.223-0.301-0.438-0.585-0.647-0.852s-0.403-0.501-0.58-0.704   v5.146H83.1v-6.591h0.733c0.297,0.318,0.616,0.687,0.956,1.108c0.339,0.422,0.675,0.855,1.008,1.303   c0.333,0.447,0.647,0.886,0.941,1.316c0.295,0.432,0.543,0.815,0.747,1.152v-4.88h0.903v6.591H87.617z"></path>
	<path fill="#FFFFFF" d="M94.132,56.935c0-0.563,0.083-1.063,0.251-1.493s0.396-0.791,0.685-1.08   c0.289-0.288,0.624-0.505,1.008-0.651c0.384-0.146,0.791-0.218,1.223-0.218c0.424,0,0.826,0.072,1.203,0.218   c0.377,0.146,0.708,0.363,0.994,0.651c0.286,0.289,0.512,0.649,0.68,1.08c0.167,0.431,0.251,0.93,0.251,1.493   c0,0.564-0.084,1.062-0.251,1.493c-0.168,0.431-0.395,0.791-0.68,1.079c-0.285,0.288-0.617,0.506-0.994,0.651   c-0.376,0.146-0.778,0.219-1.203,0.219c-0.432,0-0.839-0.072-1.223-0.219c-0.384-0.146-0.719-0.363-1.008-0.651   s-0.517-0.648-0.685-1.079C94.216,57.996,94.132,57.499,94.132,56.935z M95.102,56.935c0,0.399,0.051,0.763,0.152,1.089   c0.102,0.327,0.245,0.604,0.433,0.832c0.187,0.229,0.416,0.405,0.685,0.527c0.27,0.124,0.572,0.186,0.907,0.186   c0.337,0,0.638-0.062,0.904-0.186c0.266-0.122,0.493-0.299,0.68-0.527c0.187-0.228,0.332-0.505,0.433-0.832   c0.101-0.326,0.152-0.689,0.152-1.089c0-0.4-0.051-0.763-0.152-1.089c-0.102-0.327-0.246-0.604-0.433-0.833   s-0.414-0.403-0.68-0.526c-0.266-0.125-0.567-0.187-0.904-0.187c-0.335,0-0.638,0.062-0.907,0.187   c-0.27,0.123-0.499,0.298-0.685,0.526c-0.188,0.229-0.331,0.506-0.433,0.833C95.152,56.172,95.102,56.534,95.102,56.935z"></path>
	<path fill="#FFFFFF" d="M110.137,59.436v0.799h-3.965v-6.591h0.922v5.792H110.137z"></path>
	<path fill="#FFFFFF" d="M114.788,56.935c0-0.563,0.084-1.063,0.252-1.493c0.168-0.431,0.396-0.791,0.685-1.08   c0.289-0.288,0.625-0.505,1.009-0.651c0.383-0.146,0.79-0.218,1.221-0.218c0.425,0,0.826,0.072,1.204,0.218   c0.377,0.146,0.708,0.363,0.993,0.651c0.286,0.289,0.512,0.649,0.681,1.08c0.168,0.431,0.252,0.93,0.252,1.493   c0,0.564-0.084,1.062-0.252,1.493c-0.168,0.431-0.395,0.791-0.681,1.079c-0.285,0.288-0.616,0.506-0.993,0.651   c-0.377,0.146-0.779,0.219-1.204,0.219c-0.431,0-0.838-0.072-1.221-0.219c-0.384-0.146-0.72-0.363-1.009-0.651   s-0.517-0.648-0.685-1.079C114.872,57.996,114.788,57.499,114.788,56.935z M115.757,56.935c0,0.399,0.051,0.763,0.152,1.089   c0.101,0.327,0.246,0.604,0.433,0.832c0.187,0.229,0.415,0.405,0.685,0.527c0.27,0.124,0.572,0.186,0.908,0.186   s0.638-0.062,0.903-0.186c0.267-0.122,0.493-0.299,0.68-0.527c0.188-0.228,0.332-0.505,0.433-0.832   c0.101-0.326,0.152-0.689,0.152-1.089c0-0.4-0.051-0.763-0.152-1.089c-0.102-0.327-0.246-0.604-0.433-0.833   c-0.187-0.229-0.414-0.403-0.68-0.526c-0.266-0.125-0.567-0.187-0.903-0.187s-0.639,0.062-0.908,0.187   c-0.27,0.123-0.498,0.298-0.685,0.526c-0.188,0.229-0.332,0.506-0.433,0.833C115.809,56.172,115.757,56.534,115.757,56.935z"></path>
	<path fill="#FFFFFF" d="M130.85,56.991h0.923v3.082c-0.076,0.025-0.186,0.054-0.328,0.085c-0.143,0.032-0.308,0.064-0.495,0.095   c-0.187,0.032-0.391,0.059-0.613,0.081s-0.447,0.034-0.675,0.034c-0.463,0-0.885-0.076-1.265-0.229   c-0.38-0.153-0.707-0.374-0.98-0.666c-0.272-0.291-0.483-0.649-0.632-1.075c-0.149-0.424-0.224-0.912-0.224-1.464   s0.084-1.042,0.252-1.469c0.167-0.43,0.395-0.789,0.679-1.08c0.286-0.292,0.621-0.513,1.004-0.666   c0.384-0.152,0.794-0.228,1.231-0.228c0.298,0,0.563,0.019,0.794,0.057s0.429,0.083,0.594,0.134c0.165,0.05,0.3,0.102,0.404,0.151   c0.104,0.052,0.176,0.089,0.214,0.113l-0.295,0.771c-0.184-0.121-0.428-0.221-0.732-0.299c-0.304-0.08-0.615-0.12-0.932-0.12   c-0.336,0-0.642,0.061-0.917,0.181s-0.511,0.295-0.704,0.523c-0.193,0.228-0.344,0.506-0.452,0.833   c-0.108,0.325-0.162,0.691-0.162,1.098c0,0.394,0.045,0.752,0.137,1.074c0.093,0.324,0.232,0.602,0.419,0.832   c0.187,0.232,0.418,0.412,0.694,0.538c0.276,0.127,0.601,0.189,0.975,0.189c0.267,0,0.494-0.014,0.681-0.043   c0.187-0.027,0.322-0.055,0.404-0.08V56.991z"></path>
	<path fill="#FFFFFF" d="M139.163,60.234v-2.644c-0.438-0.679-0.85-1.348-1.237-2.007s-0.751-1.306-1.093-1.94h1.084   c0.241,0.521,0.511,1.047,0.808,1.584c0.298,0.536,0.605,1.051,0.923,1.545c0.311-0.494,0.615-1.009,0.913-1.545   c0.297-0.537,0.57-1.063,0.818-1.584h1.027c-0.343,0.635-0.707,1.279-1.094,1.936s-0.795,1.32-1.227,1.992v2.663H139.163z"></path>
	<path fill="#40B4E5" d="M147.274,58.483c0-0.246,0.038-0.466,0.114-0.659c0.076-0.194,0.179-0.369,0.309-0.522   c0.13-0.156,0.28-0.293,0.452-0.41c0.171-0.117,0.349-0.22,0.533-0.309c-0.47-0.47-0.705-0.954-0.705-1.455   c0-0.254,0.043-0.481,0.129-0.685c0.085-0.203,0.202-0.375,0.352-0.514c0.148-0.14,0.326-0.247,0.532-0.323s0.433-0.114,0.68-0.114   c0.253,0,0.481,0.038,0.681,0.114s0.367,0.178,0.503,0.304c0.138,0.127,0.24,0.279,0.31,0.457c0.07,0.178,0.105,0.364,0.105,0.561   c0,0.222-0.037,0.422-0.11,0.599c-0.072,0.178-0.17,0.34-0.295,0.486c-0.123,0.146-0.265,0.278-0.423,0.399   c-0.158,0.119-0.326,0.228-0.504,0.322l1.541,1.569c0.215-0.399,0.355-0.843,0.418-1.331l0.732,0.095   c-0.025,0.261-0.091,0.544-0.195,0.852c-0.104,0.307-0.252,0.614-0.442,0.918c0.223,0.24,0.427,0.478,0.613,0.713   c0.188,0.234,0.342,0.463,0.462,0.685h-0.932c-0.076-0.126-0.17-0.257-0.28-0.39c-0.111-0.134-0.228-0.267-0.349-0.399   c-0.26,0.26-0.56,0.471-0.903,0.632c-0.341,0.162-0.735,0.242-1.179,0.242c-0.412,0-0.755-0.059-1.026-0.176   c-0.273-0.116-0.494-0.266-0.662-0.446s-0.287-0.379-0.357-0.595C147.309,58.888,147.274,58.681,147.274,58.483z M148.159,58.465   c0,0.114,0.022,0.238,0.066,0.372c0.044,0.132,0.117,0.255,0.219,0.366c0.102,0.11,0.233,0.202,0.395,0.275   c0.162,0.073,0.363,0.109,0.604,0.109c0.311,0,0.597-0.057,0.86-0.172c0.263-0.113,0.495-0.275,0.699-0.484l-1.854-1.874   c-0.114,0.058-0.23,0.124-0.348,0.2c-0.116,0.076-0.224,0.17-0.318,0.28c-0.095,0.111-0.173,0.243-0.232,0.396   C148.189,58.085,148.159,58.264,148.159,58.465z M150.47,54.956c0-0.216-0.071-0.397-0.213-0.547   c-0.144-0.148-0.339-0.224-0.586-0.224c-0.279,0-0.492,0.085-0.642,0.253s-0.223,0.376-0.223,0.622   c0,0.413,0.215,0.814,0.646,1.208c0.14-0.069,0.271-0.146,0.395-0.228c0.124-0.083,0.232-0.178,0.324-0.285   c0.092-0.108,0.165-0.228,0.219-0.357S150.47,55.122,150.47,54.956z"></path>
	<path fill="#FFFFFF" d="M161.196,60.377c-0.462,0-0.883-0.076-1.264-0.229c-0.38-0.151-0.707-0.373-0.979-0.665   c-0.272-0.291-0.483-0.651-0.633-1.08c-0.148-0.427-0.223-0.917-0.223-1.469s0.083-1.042,0.251-1.469   c0.169-0.43,0.396-0.789,0.681-1.08c0.285-0.292,0.619-0.513,0.999-0.666c0.38-0.152,0.785-0.228,1.217-0.228   c0.272,0,0.518,0.019,0.737,0.057c0.219,0.038,0.408,0.083,0.57,0.134c0.162,0.05,0.293,0.102,0.395,0.151   c0.102,0.052,0.171,0.089,0.209,0.113l-0.266,0.762c-0.057-0.038-0.14-0.079-0.248-0.124c-0.107-0.044-0.229-0.088-0.365-0.132   c-0.136-0.046-0.286-0.082-0.447-0.11c-0.162-0.028-0.324-0.043-0.49-0.043c-0.349,0-0.662,0.061-0.94,0.181   c-0.279,0.12-0.518,0.295-0.714,0.523c-0.197,0.228-0.348,0.506-0.452,0.833c-0.104,0.325-0.156,0.691-0.156,1.098   c0,0.394,0.046,0.752,0.138,1.074c0.092,0.324,0.23,0.602,0.413,0.832c0.184,0.232,0.414,0.412,0.69,0.538   c0.275,0.127,0.597,0.189,0.964,0.189c0.426,0,0.777-0.044,1.057-0.133c0.278-0.089,0.488-0.167,0.627-0.237l0.238,0.761   c-0.045,0.03-0.123,0.071-0.238,0.118c-0.113,0.048-0.256,0.094-0.427,0.139c-0.172,0.043-0.371,0.082-0.6,0.113   S161.464,60.377,161.196,60.377z"></path>
	<path fill="#FFFFFF" d="M168.178,56.935c0-0.563,0.084-1.063,0.252-1.493s0.396-0.791,0.686-1.08   c0.288-0.288,0.623-0.505,1.007-0.651c0.385-0.146,0.791-0.218,1.223-0.218c0.425,0,0.825,0.072,1.204,0.218   c0.376,0.146,0.707,0.363,0.992,0.651c0.285,0.289,0.513,0.649,0.68,1.08c0.169,0.431,0.253,0.93,0.253,1.493   c0,0.564-0.084,1.062-0.253,1.493c-0.167,0.431-0.395,0.791-0.68,1.079s-0.616,0.506-0.992,0.651   c-0.379,0.146-0.779,0.219-1.204,0.219c-0.432,0-0.838-0.072-1.223-0.219c-0.384-0.146-0.719-0.363-1.007-0.651   c-0.29-0.288-0.518-0.648-0.686-1.079C168.262,57.996,168.178,57.499,168.178,56.935z M169.147,56.935   c0,0.399,0.051,0.763,0.153,1.089c0.101,0.327,0.244,0.604,0.432,0.832c0.188,0.229,0.416,0.405,0.686,0.527   c0.269,0.124,0.571,0.186,0.907,0.186s0.638-0.062,0.904-0.186c0.266-0.122,0.492-0.299,0.68-0.527   c0.187-0.228,0.331-0.505,0.433-0.832c0.102-0.326,0.152-0.689,0.152-1.089c0-0.4-0.051-0.763-0.152-1.089   c-0.102-0.327-0.246-0.604-0.433-0.833c-0.188-0.229-0.414-0.403-0.68-0.526c-0.267-0.125-0.568-0.187-0.904-0.187   s-0.639,0.062-0.907,0.187c-0.27,0.123-0.498,0.298-0.686,0.526s-0.331,0.506-0.432,0.833   C169.198,56.172,169.147,56.534,169.147,56.935z"></path>
	<path fill="#FFFFFF" d="M184.735,60.234c-0.14-0.234-0.3-0.498-0.481-0.789c-0.179-0.293-0.375-0.595-0.584-0.908   c-0.209-0.314-0.426-0.633-0.651-0.956c-0.225-0.323-0.449-0.636-0.67-0.937c-0.223-0.301-0.438-0.585-0.647-0.852   s-0.402-0.501-0.579-0.704v5.146h-0.904v-6.591h0.732c0.298,0.318,0.617,0.687,0.955,1.108c0.34,0.422,0.675,0.855,1.009,1.303   c0.333,0.447,0.646,0.886,0.941,1.316c0.295,0.432,0.543,0.815,0.746,1.152v-4.88h0.904v6.591H184.735z"></path>
	<path fill="#FFFFFF" d="M193.047,59.578c0.964,0,1.445-0.33,1.445-0.989c0-0.203-0.043-0.376-0.128-0.518   c-0.086-0.144-0.201-0.267-0.348-0.371c-0.146-0.104-0.312-0.195-0.499-0.271c-0.187-0.076-0.385-0.152-0.594-0.229   c-0.241-0.082-0.469-0.175-0.686-0.281c-0.215-0.104-0.402-0.227-0.562-0.37c-0.157-0.142-0.283-0.313-0.375-0.508   c-0.092-0.197-0.138-0.436-0.138-0.714c0-0.577,0.196-1.027,0.59-1.35c0.393-0.324,0.935-0.485,1.626-0.485   c0.399,0,0.763,0.042,1.088,0.128c0.328,0.086,0.566,0.18,0.719,0.28l-0.295,0.752c-0.133-0.083-0.331-0.163-0.595-0.243   c-0.262-0.079-0.568-0.118-0.917-0.118c-0.178,0-0.342,0.019-0.495,0.057c-0.151,0.038-0.285,0.096-0.398,0.172   c-0.114,0.075-0.205,0.171-0.271,0.29c-0.066,0.117-0.1,0.254-0.1,0.413c0,0.178,0.034,0.327,0.104,0.446   c0.069,0.121,0.168,0.228,0.294,0.318c0.128,0.093,0.274,0.177,0.443,0.253c0.167,0.076,0.354,0.152,0.556,0.229   c0.285,0.114,0.547,0.228,0.784,0.342c0.238,0.114,0.444,0.251,0.619,0.409c0.174,0.158,0.309,0.347,0.404,0.565   c0.095,0.219,0.143,0.484,0.143,0.794c0,0.577-0.211,1.021-0.633,1.332c-0.422,0.312-1.017,0.466-1.783,0.466   c-0.261,0-0.499-0.018-0.719-0.053c-0.218-0.034-0.413-0.076-0.584-0.123c-0.172-0.048-0.318-0.098-0.442-0.152   c-0.123-0.053-0.221-0.1-0.29-0.138l0.276-0.761c0.146,0.082,0.367,0.174,0.665,0.275S192.615,59.578,193.047,59.578z"></path>
	<path fill="#FFFFFF" d="M203.403,60.377c-0.431,0-0.805-0.066-1.122-0.2c-0.317-0.133-0.577-0.314-0.779-0.546   c-0.203-0.232-0.354-0.506-0.452-0.822c-0.099-0.317-0.146-0.66-0.146-1.027v-4.138h0.923v4.033c0,0.659,0.145,1.138,0.437,1.436   c0.291,0.298,0.671,0.447,1.141,0.447c0.234,0,0.449-0.037,0.643-0.109c0.192-0.073,0.358-0.186,0.5-0.338   c0.138-0.153,0.246-0.348,0.322-0.585s0.114-0.521,0.114-0.851v-4.033h0.923v4.138c0,0.367-0.049,0.71-0.148,1.027   c-0.097,0.316-0.25,0.59-0.456,0.822c-0.206,0.231-0.466,0.413-0.778,0.546C204.207,60.311,203.835,60.377,203.403,60.377z"></path>
	<path fill="#FFFFFF" d="M215.834,59.436v0.799h-3.966v-6.591h0.922v5.792H215.834z"></path>
	<path fill="#FFFFFF" d="M224.487,53.644v0.8h-2.072v5.791h-0.923v-5.791h-2.073v-0.8H224.487z"></path>
	<path fill="#FFFFFF" d="M229.833,53.644h0.922v6.591h-0.922V53.644z"></path>
	<path fill="#FFFFFF" d="M241.283,60.234c-0.14-0.234-0.3-0.498-0.481-0.789c-0.181-0.293-0.375-0.595-0.584-0.908   c-0.21-0.314-0.427-0.633-0.651-0.956c-0.226-0.323-0.448-0.636-0.671-0.937s-0.437-0.585-0.647-0.852   c-0.209-0.267-0.402-0.501-0.58-0.704v5.146h-0.903v-6.591h0.732c0.299,0.318,0.617,0.687,0.956,1.108s0.675,0.855,1.008,1.303   s0.646,0.886,0.942,1.316c0.295,0.432,0.542,0.815,0.746,1.152v-4.88h0.902v6.591H241.283z"></path>
	<path fill="#FFFFFF" d="M252.086,56.991h0.922v3.082c-0.076,0.025-0.185,0.054-0.327,0.085c-0.144,0.032-0.309,0.064-0.495,0.095   c-0.187,0.032-0.392,0.059-0.613,0.081s-0.447,0.034-0.676,0.034c-0.463,0-0.884-0.076-1.264-0.229   c-0.381-0.153-0.708-0.374-0.98-0.666c-0.273-0.291-0.483-0.649-0.632-1.075c-0.149-0.424-0.225-0.912-0.225-1.464   s0.085-1.042,0.253-1.469c0.168-0.43,0.396-0.789,0.68-1.08c0.285-0.292,0.62-0.513,1.004-0.666   c0.384-0.152,0.793-0.228,1.231-0.228c0.298,0,0.563,0.019,0.794,0.057s0.43,0.083,0.594,0.134c0.166,0.05,0.3,0.102,0.404,0.151   c0.105,0.052,0.176,0.089,0.215,0.113l-0.295,0.771c-0.184-0.121-0.428-0.221-0.732-0.299c-0.305-0.08-0.615-0.12-0.932-0.12   c-0.337,0-0.642,0.061-0.918,0.181s-0.511,0.295-0.704,0.523c-0.193,0.228-0.344,0.506-0.452,0.833   c-0.107,0.325-0.161,0.691-0.161,1.098c0,0.394,0.046,0.752,0.138,1.074c0.092,0.324,0.232,0.602,0.419,0.832   c0.187,0.232,0.418,0.412,0.694,0.538c0.275,0.127,0.601,0.189,0.975,0.189c0.266,0,0.492-0.014,0.68-0.043   c0.188-0.027,0.321-0.055,0.404-0.08V56.991z"></path>
</g>
<path fill="#FFFFFF" d="M49.871,47.792c-1.491,0-2.876-0.268-4.156-0.801c-1.28-0.533-2.386-1.262-3.318-2.181  c-0.932-0.919-1.658-2-2.181-3.244c-0.522-1.241-0.783-2.559-0.783-3.951v-0.074c0-1.417,0.267-2.746,0.802-3.989  c0.534-1.244,1.267-2.33,2.199-3.262c0.932-0.933,2.038-1.671,3.318-2.218c1.28-0.547,2.678-0.82,4.194-0.82  c1.516,0,2.914,0.268,4.194,0.802c1.28,0.535,2.385,1.267,3.317,2.199c0.932,0.932,1.66,2.013,2.181,3.244  c0.522,1.23,0.783,2.554,0.783,3.97v0.075c0,1.392-0.268,2.708-0.802,3.951c-0.534,1.243-1.267,2.33-2.199,3.263  s-2.044,1.672-3.336,2.218C52.792,47.519,51.387,47.792,49.871,47.792z M49.946,43.878c0.913,0,1.734-0.168,2.463-0.503  c0.728-0.336,1.352-0.789,1.871-1.36s0.915-1.236,1.186-1.995c0.271-0.757,0.407-1.559,0.407-2.405v-0.074  c0-0.87-0.149-1.69-0.444-2.46c-0.296-0.771-0.711-1.441-1.241-2.013c-0.531-0.572-1.161-1.025-1.89-1.362  c-0.729-0.334-1.537-0.502-2.426-0.502c-0.89,0-1.698,0.168-2.427,0.502c-0.729,0.337-1.353,0.783-1.871,1.342  c-0.519,0.56-0.914,1.226-1.186,1.995c-0.272,0.771-0.408,1.579-0.408,2.423v0.075c0,0.87,0.148,1.684,0.445,2.441  c0.295,0.759,0.709,1.43,1.241,2.013c0.531,0.585,1.161,1.044,1.889,1.38C48.285,43.71,49.082,43.878,49.946,43.878z"></path>
<path fill="#40B4E5" d="M199.412,27.258h4.583v20.524h-4.583V27.258z"></path>
<path fill="#40B4E5" d="M214.123,47.816c-1.429,0-2.876-0.252-4.343-0.759c-1.467-0.506-2.826-1.254-4.08-2.242l2.031-3.089  c1.077,0.803,2.173,1.41,3.289,1.824c1.115,0.412,2.188,0.619,3.216,0.619c0.978,0,1.735-0.194,2.275-0.581  c0.538-0.388,0.807-0.907,0.807-1.558v-0.075c0-0.375-0.118-0.699-0.356-0.975c-0.238-0.274-0.564-0.512-0.978-0.712  c-0.414-0.2-0.89-0.389-1.43-0.564c-0.538-0.174-1.096-0.35-1.673-0.524c-0.727-0.2-1.46-0.438-2.198-0.712  c-0.74-0.275-1.404-0.632-1.994-1.07c-0.589-0.438-1.071-0.981-1.447-1.632c-0.376-0.65-0.564-1.451-0.564-2.401V33.29  c0-0.925,0.183-1.762,0.546-2.513s0.865-1.388,1.504-1.914c0.64-0.525,1.391-0.925,2.256-1.2c0.864-0.275,1.785-0.413,2.764-0.413  c1.254,0,2.52,0.203,3.799,0.608c1.276,0.405,2.442,0.962,3.495,1.671l-1.804,3.249c-0.953-0.577-1.919-1.035-2.896-1.373  c-0.978-0.338-1.881-0.508-2.707-0.508c-0.878,0-1.561,0.188-2.049,0.563c-0.49,0.376-0.733,0.851-0.733,1.426v0.075  c0,0.351,0.124,0.657,0.376,0.92c0.249,0.262,0.582,0.5,0.996,0.712c0.414,0.213,0.89,0.413,1.429,0.601  c0.538,0.188,1.097,0.369,1.674,0.544c0.727,0.226,1.453,0.489,2.18,0.788c0.728,0.3,1.385,0.669,1.974,1.107  c0.59,0.438,1.072,0.969,1.448,1.595s0.564,1.388,0.564,2.288v0.074c0,1.052-0.188,1.965-0.564,2.74s-0.896,1.419-1.561,1.932  s-1.447,0.9-2.35,1.162C216.115,47.686,215.151,47.816,214.123,47.816z"></path>
<path fill="#40B4E5" d="M265.138,47.893c-1.5,0-2.896-0.27-4.183-0.807c-1.288-0.536-2.4-1.269-3.339-2.194  c-0.938-0.925-1.669-2.013-2.194-3.263c-0.525-1.25-0.787-2.576-0.787-3.977v-0.074c0-1.426,0.268-2.763,0.806-4.014  c0.537-1.25,1.275-2.343,2.213-3.282s2.05-1.682,3.339-2.232c1.287-0.549,2.693-0.825,4.219-0.825c1.526,0,2.933,0.269,4.221,0.806  c1.288,0.538,2.401,1.276,3.339,2.213c0.938,0.938,1.669,2.025,2.193,3.263c0.525,1.238,0.788,2.57,0.788,3.995v0.076  c0,1.401-0.269,2.726-0.807,3.976c-0.538,1.251-1.275,2.344-2.213,3.281c-0.938,0.938-2.057,1.683-3.357,2.232  C268.075,47.617,266.662,47.893,265.138,47.893z M265.211,43.954c0.919,0,1.746-0.169,2.479-0.507  c0.733-0.337,1.361-0.793,1.882-1.368c0.522-0.575,0.92-1.244,1.193-2.007c0.273-0.763,0.41-1.569,0.41-2.42v-0.074  c0-0.875-0.149-1.7-0.447-2.477c-0.298-0.774-0.714-1.45-1.249-2.025c-0.533-0.575-1.168-1.031-1.901-1.369  c-0.733-0.337-1.547-0.507-2.44-0.507c-0.896,0-1.71,0.169-2.443,0.507c-0.731,0.338-1.359,0.788-1.882,1.351  c-0.521,0.562-0.92,1.232-1.193,2.006c-0.273,0.775-0.409,1.589-0.409,2.438v0.076c0,0.875,0.149,1.694,0.447,2.457  c0.298,0.763,0.714,1.438,1.248,2.026c0.535,0.587,1.169,1.05,1.902,1.387C263.541,43.785,264.342,43.954,265.211,43.954z"></path>
<circle fill="#40B4E5" cx="201.704" cy="21.131" r="3.313"></circle>
<path fill="#FFFFFF" d="M112.994,47.792c-1.466,0-2.82-0.267-4.064-0.8c-1.243-0.534-2.321-1.262-3.236-2.182  c-0.914-0.919-1.628-1.999-2.142-3.242c-0.514-1.243-0.771-2.56-0.771-3.952v-0.074c0-1.391,0.257-2.715,0.771-3.97  c0.514-1.254,1.228-2.348,2.142-3.28c0.915-0.932,2-1.67,3.255-2.218c1.255-0.546,2.616-0.82,4.083-0.82  c1.864,0,3.411,0.312,4.641,0.933s2.305,1.441,3.224,2.459l-2.795,3.019c-0.696-0.72-1.436-1.31-2.218-1.77  c-0.783-0.46-1.746-0.689-2.889-0.689c-0.82,0-1.578,0.167-2.273,0.503c-0.696,0.336-1.293,0.783-1.79,1.342  c-0.498,0.559-0.889,1.224-1.174,1.994c-0.286,0.771-0.429,1.578-0.429,2.423v0.075c0,0.87,0.143,1.689,0.429,2.46  c0.285,0.77,0.689,1.441,1.211,2.012c0.522,0.572,1.143,1.026,1.864,1.361c0.72,0.335,1.515,0.503,2.385,0.503  c1.068,0,2.007-0.229,2.814-0.689c0.807-0.46,1.572-1.05,2.292-1.771l2.721,2.685c-0.969,1.093-2.075,1.981-3.317,2.664  C116.486,47.451,114.908,47.792,112.994,47.792z"></path>
<path fill="#FFFFFF" d="M101.138,38.422c0.011-0.198,0.018-0.393,0.018-0.58c0-1.417-0.199-2.765-0.596-4.045  c-0.398-1.28-0.988-2.404-1.771-3.374c-0.783-0.969-1.765-1.74-2.946-2.312c-1.181-0.571-2.554-0.858-4.12-0.858  c-1.417,0-2.71,0.268-3.878,0.803c-1.169,0.534-2.182,1.268-3.039,2.199c-0.858,0.932-1.523,2.021-1.995,3.263  c-0.472,1.243-0.708,2.573-0.708,3.989v0.075c0,1.516,0.26,2.902,0.783,4.157c0.521,1.257,1.236,2.331,2.144,3.227  c0.907,0.894,1.976,1.59,3.206,2.087c1.231,0.497,2.554,0.746,3.971,0.746c1.814,0,3.375-0.335,4.68-1.007  c1.305-0.671,2.429-1.565,3.374-2.685l-2.647-2.35c-0.796,0.771-1.603,1.355-2.424,1.753c-0.819,0.397-1.789,0.597-2.908,0.597  c-1.467,0-2.716-0.429-3.748-1.286c-0.938-0.78-1.549-1.877-1.839-3.285h14.458C101.153,39.146,101.147,38.773,101.138,38.422z   M88.236,32.38c0.907-0.958,2.058-1.436,3.449-1.436c0.746,0,1.411,0.137,1.995,0.41c0.584,0.274,1.087,0.64,1.51,1.1  c0.423,0.46,0.759,1.007,1.008,1.641c0.213,0.544,0.358,1.124,0.444,1.733H86.625C86.854,34.425,87.388,33.273,88.236,32.38z"></path>
<path fill="#FFFFFF" d="M66.643,47.793v-2.229c0,0,0,0,0,0v-9.143c0-0.014,0.001-0.025,0.002-0.038v-0.596  c0-2.538,2.07-4.596,4.624-4.596c2.553,0,4.623,2.058,4.623,4.596v0.593c0,0.013,0.002,0.026,0.002,0.04v11.372h4.572V36.875  c0.006-0.136,0.01-0.271,0.01-0.408c0-0.015,0-0.028,0-0.043c-0.01-2.18-0.777-4.179-2.051-5.752l0,0  c-0.42-0.519-0.896-0.991-1.418-1.408c-0.007-0.006-0.015-0.012-0.022-0.018c-0.12-0.095-0.243-0.188-0.368-0.276  c-0.014-0.01-0.028-0.021-0.042-0.031c-0.122-0.086-0.245-0.168-0.371-0.249c-0.014-0.009-0.029-0.019-0.044-0.028  c-0.131-0.083-0.265-0.163-0.401-0.239c-0.007-0.004-0.015-0.008-0.021-0.012c-0.44-0.244-0.901-0.454-1.381-0.626  c-0.005-0.001-0.011-0.003-0.017-0.005c-0.147-0.052-0.297-0.101-0.448-0.146c-0.028-0.009-0.056-0.017-0.084-0.024  c-0.131-0.038-0.262-0.072-0.395-0.104c-0.036-0.009-0.074-0.017-0.11-0.026c-0.127-0.028-0.255-0.054-0.384-0.078  c-0.039-0.008-0.078-0.014-0.116-0.021c-0.132-0.021-0.267-0.041-0.401-0.057c-0.034-0.005-0.067-0.009-0.101-0.013  c-0.155-0.018-0.312-0.03-0.468-0.04c-0.013-0.001-0.026-0.002-0.039-0.003c-0.176-0.01-0.354-0.015-0.532-0.015  c-0.179,0-0.355,0.005-0.531,0.015c-0.013,0.001-0.026,0.002-0.04,0.003c-0.156,0.01-0.313,0.022-0.467,0.04  c-0.034,0.004-0.067,0.008-0.102,0.013c-0.134,0.016-0.269,0.036-0.401,0.057c-0.039,0.007-0.077,0.014-0.116,0.021  c-0.129,0.023-0.258,0.05-0.384,0.078c-0.037,0.009-0.074,0.017-0.11,0.026c-0.133,0.032-0.265,0.066-0.395,0.104  c-0.028,0.008-0.056,0.016-0.083,0.024c-0.152,0.044-0.302,0.093-0.45,0.146c-0.005,0.001-0.01,0.003-0.016,0.005  c-0.48,0.172-0.942,0.382-1.382,0.627c-0.006,0.003-0.012,0.007-0.02,0.011c-0.136,0.077-0.271,0.156-0.403,0.24  c-0.014,0.009-0.029,0.018-0.042,0.027c-0.127,0.08-0.25,0.164-0.373,0.25c-0.014,0.01-0.027,0.019-0.042,0.029  c-0.125,0.089-0.248,0.182-0.37,0.278c-0.006,0.005-0.013,0.011-0.02,0.016c-0.521,0.417-0.998,0.889-1.418,1.408h0  c-1.277,1.578-2.045,3.584-2.051,5.772h0V36.2l0,0v11.593H66.643z"></path>
<path fill="#40B4E5" d="M181.475,27.244v2.229l0,0v9.144c0,0.012-0.002,0.024-0.002,0.038v0.595c0,2.538-2.07,4.596-4.624,4.596  s-4.623-2.058-4.623-4.596v-0.593c0-0.014-0.002-0.026-0.002-0.04V27.244h-4.572v10.918c-0.006,0.136-0.01,0.271-0.01,0.409  c0,0.014,0,0.028,0,0.042c0.01,2.18,0.776,4.18,2.051,5.753l0,0c0.421,0.52,0.896,0.991,1.418,1.407  c0.007,0.007,0.015,0.013,0.021,0.019c0.121,0.095,0.243,0.188,0.368,0.276c0.014,0.011,0.028,0.021,0.043,0.031  c0.121,0.086,0.244,0.169,0.37,0.248c0.015,0.01,0.028,0.02,0.044,0.028c0.131,0.083,0.266,0.163,0.4,0.239  c0.008,0.004,0.016,0.008,0.021,0.012c0.439,0.245,0.9,0.455,1.381,0.625c0.006,0.002,0.012,0.004,0.018,0.006  c0.146,0.054,0.297,0.103,0.448,0.146c0.028,0.008,0.056,0.016,0.083,0.023c0.131,0.038,0.263,0.072,0.396,0.104  c0.036,0.011,0.073,0.019,0.11,0.026c0.127,0.028,0.256,0.055,0.384,0.079c0.038,0.007,0.078,0.014,0.116,0.02  c0.133,0.023,0.268,0.041,0.402,0.059c0.033,0.004,0.066,0.009,0.101,0.013c0.154,0.018,0.311,0.031,0.468,0.04  c0.013,0.001,0.026,0.003,0.038,0.004c0.177,0.01,0.354,0.015,0.532,0.015s0.356-0.005,0.532-0.015  c0.013-0.001,0.025-0.003,0.038-0.004c0.157-0.009,0.313-0.022,0.468-0.04c0.033-0.004,0.067-0.009,0.102-0.013  c0.135-0.018,0.269-0.035,0.4-0.059c0.039-0.006,0.078-0.013,0.117-0.02c0.129-0.024,0.257-0.051,0.385-0.079  c0.036-0.008,0.073-0.016,0.109-0.026c0.133-0.031,0.265-0.065,0.396-0.104c0.027-0.008,0.056-0.016,0.083-0.023  c0.152-0.044,0.301-0.093,0.449-0.146c0.006-0.002,0.011-0.004,0.016-0.006c0.48-0.17,0.942-0.381,1.382-0.625  c0.007-0.004,0.013-0.008,0.02-0.011c0.137-0.077,0.271-0.157,0.404-0.241c0.014-0.008,0.027-0.018,0.041-0.025  c0.126-0.081,0.251-0.164,0.372-0.251c0.014-0.01,0.027-0.02,0.041-0.029c0.126-0.09,0.249-0.183,0.37-0.278  c0.006-0.005,0.014-0.011,0.021-0.017c0.521-0.416,0.997-0.889,1.418-1.408l0,0c1.278-1.578,2.046-3.584,2.051-5.772h0.001v0.244  l0,0V27.244H181.475z"></path>
<path fill="#40B4E5" d="M253.008,36.379c-0.01-2.18-0.776-4.18-2.051-5.753l0,0c-0.421-0.518-0.896-0.99-1.418-1.408  c-0.007-0.006-0.015-0.011-0.021-0.017c-0.121-0.095-0.243-0.188-0.368-0.277c-0.014-0.01-0.028-0.021-0.043-0.03  c-0.121-0.086-0.244-0.169-0.37-0.249c-0.015-0.009-0.028-0.019-0.044-0.028c-0.132-0.083-0.266-0.163-0.402-0.239  c-0.006-0.004-0.014-0.008-0.02-0.012c-0.44-0.245-0.901-0.455-1.382-0.626c-0.005-0.002-0.011-0.004-0.017-0.006  c-0.146-0.052-0.297-0.101-0.448-0.146c-0.028-0.009-0.056-0.016-0.084-0.024c-0.13-0.037-0.262-0.072-0.396-0.104  c-0.036-0.008-0.073-0.017-0.109-0.026c-0.127-0.028-0.256-0.055-0.385-0.078c-0.038-0.007-0.077-0.015-0.116-0.021  c-0.133-0.022-0.267-0.042-0.401-0.058c-0.033-0.004-0.066-0.009-0.101-0.012c-0.155-0.018-0.312-0.032-0.468-0.041  c-0.014-0.001-0.026-0.002-0.039-0.003c-0.176-0.01-0.353-0.016-0.531-0.016s-0.356,0.006-0.532,0.016  c-0.013,0-0.025,0.002-0.038,0.003c-0.158,0.009-0.313,0.023-0.468,0.041c-0.035,0.003-0.067,0.008-0.102,0.012  c-0.135,0.016-0.269,0.036-0.401,0.058c-0.039,0.006-0.077,0.014-0.116,0.021c-0.129,0.023-0.258,0.05-0.385,0.078  c-0.036,0.009-0.073,0.018-0.109,0.026c-0.134,0.032-0.266,0.067-0.396,0.104c-0.028,0.009-0.056,0.016-0.083,0.024  c-0.152,0.045-0.301,0.093-0.45,0.146c-0.005,0.002-0.011,0.003-0.016,0.006c-0.479,0.171-0.941,0.381-1.381,0.626  c-0.007,0.004-0.014,0.008-0.02,0.011c-0.137,0.077-0.271,0.157-0.404,0.24c-0.014,0.009-0.027,0.019-0.041,0.027  c-0.126,0.081-0.251,0.164-0.372,0.25c-0.014,0.01-0.027,0.02-0.042,0.029c-0.121,0.087-0.24,0.177-0.356,0.269  c-0.001,0-0.002-0.001-0.002-0.001c-0.009-0.006-0.017-0.012-0.023-0.018c-0.12-0.095-0.242-0.188-0.367-0.277  c-0.015-0.01-0.029-0.021-0.043-0.031c-0.121-0.086-0.245-0.168-0.37-0.248c-0.015-0.009-0.029-0.02-0.044-0.028  c-0.132-0.083-0.265-0.163-0.401-0.239c-0.008-0.004-0.014-0.008-0.021-0.012c-0.439-0.245-0.902-0.455-1.382-0.626  c-0.005-0.002-0.011-0.004-0.016-0.005c-0.148-0.053-0.298-0.101-0.449-0.146c-0.027-0.009-0.057-0.016-0.084-0.023  c-0.13-0.038-0.263-0.073-0.395-0.104c-0.036-0.009-0.073-0.017-0.11-0.025c-0.128-0.029-0.256-0.055-0.384-0.079  c-0.04-0.006-0.078-0.013-0.117-0.02c-0.133-0.023-0.267-0.041-0.401-0.059c-0.033-0.004-0.067-0.009-0.101-0.012  c-0.155-0.018-0.311-0.032-0.468-0.041c-0.013-0.001-0.025-0.003-0.04-0.003c-0.175-0.01-0.353-0.016-0.53-0.016  c-0.179,0-0.356,0.005-0.532,0.016c-0.013,0-0.025,0.002-0.039,0.003c-0.156,0.009-0.313,0.023-0.467,0.041  c-0.035,0.003-0.067,0.008-0.103,0.012c-0.134,0.018-0.268,0.036-0.4,0.059c-0.039,0.007-0.078,0.014-0.116,0.02  c-0.129,0.025-0.257,0.05-0.384,0.079c-0.038,0.008-0.074,0.016-0.11,0.025c-0.133,0.031-0.265,0.066-0.396,0.104  c-0.028,0.008-0.056,0.015-0.084,0.023c-0.15,0.044-0.302,0.093-0.449,0.146c-0.005,0.002-0.01,0.003-0.017,0.005  c-0.479,0.171-0.941,0.382-1.38,0.626c-0.006,0.004-0.014,0.008-0.021,0.011c-0.137,0.077-0.271,0.157-0.403,0.241  c-0.014,0.008-0.027,0.018-0.041,0.027c-0.127,0.081-0.25,0.163-0.372,0.25c-0.015,0.01-0.028,0.02-0.042,0.03  c-0.125,0.09-0.249,0.183-0.369,0.279c-0.007,0.005-0.014,0.01-0.021,0.015c-0.521,0.417-0.998,0.89-1.418,1.409l0,0  c-1.278,1.578-2.046,3.585-2.051,5.772h-0.001v-0.244l0,0V47.72h4.595v-2.229h0.001v-9.143c0-0.013,0.002-0.025,0.002-0.038v-0.595  c0-0.044,0.005-0.087,0.006-0.131v-0.459c0-2.205,1.798-3.992,4.017-3.992c2.218,0,4.017,1.787,4.017,3.992v10.225h-0.003v2.352  h0.002h4.594h0.001V36.304c0-0.004,0.001-0.008,0.001-0.012v-0.595c0-0.096,0.007-0.19,0.013-0.284v-0.303  c0-2.205,1.798-3.992,4.017-3.992c2.218,0,4.016,1.787,4.016,3.992v0.144c0.018,0.161,0.028,0.324,0.028,0.489v0.594  c0,0.013,0.002,0.026,0.002,0.04v11.372h4.572V36.83c0.006-0.135,0.01-0.271,0.01-0.409  C253.008,36.407,253.008,36.393,253.008,36.379z M240.35,36.353L240.35,36.353c0-0.008-0.001-0.015-0.001-0.023  c0-0.007,0.001-0.014,0.001-0.021V36.353z"></path>
<path fill="#40B4E5" d="M197.78,27.253h-1.584c-4.082,0-7.871,1.976-8.514,7.143v13.396h4.586V37.015h0.003V35.52h0.006  c0.005-2.35,1.883-4.255,4.22-4.312v-0.015h1.283V27.253z"></path>
</svg>